<svg width="100" height="16" viewBox="0 0 100 16" fill="none" xmlns="http://www.w3.org/2000/svg">
<path d="M7.57806 16C6.17315 16 4.96799 15.697 3.96258 15.0911C2.96383 14.4786 2.19479 13.6329 1.65547 12.5543C1.11614 11.469 0.846481 10.2139 0.846481 8.78901V8.39949C0.846481 6.94132 1.11281 5.65959 1.64548 4.5543C2.18481 3.44902 2.9372 2.58676 3.90266 1.96754C4.86812 1.34831 5.99338 1.0387 7.27844 1.0387C8.35709 1.0387 9.3292 1.17853 10.1948 1.45818C11.0604 1.73117 11.8061 2.12401 12.432 2.6367V5.74282H10.5044L10.1848 3.72534C9.89183 3.50561 9.51897 3.3325 9.0662 3.20599C8.61343 3.07948 8.08742 3.01623 7.48817 3.01623C6.66254 3.01623 5.94011 3.24261 5.32088 3.69538C4.70166 4.14149 4.21893 4.76737 3.8727 5.57303C3.53312 6.37869 3.36333 7.31418 3.36333 8.37952V8.78901C3.36333 10.3737 3.72954 11.6454 4.46196 12.6042C5.20103 13.5564 6.25638 14.0324 7.628 14.0324C8.20727 14.0324 8.71664 13.9792 9.15609 13.8726C9.6022 13.7661 9.98172 13.6329 10.2947 13.4731V10.6067L7.91764 10.4669V8.67914H12.8115V14.4519C12.2589 14.8847 11.5531 15.2509 10.6942 15.5505C9.8419 15.8502 8.8032 16 7.57806 16Z" fill="#262626"/>
<path d="M14.6392 15.7902V14.2522L16.1274 13.9525V6.83146L14.5493 6.53183V4.98377H18.4445L18.5743 6.34207L18.5943 6.56179C19.1736 5.37661 20.0125 4.78402 21.1111 4.78402C21.524 4.78402 21.8935 4.83728 22.2197 4.94382L21.9301 7.27091L20.5219 7.19101C20.0624 7.16437 19.6829 7.25426 19.3833 7.46067C19.0837 7.66708 18.8373 7.95338 18.6442 8.31959V13.9525L20.1423 14.2522V15.7902H14.6392Z" fill="#262626"/>
<path d="M28.1124 16C27.087 16 26.1981 15.7736 25.4457 15.3208C24.6933 14.8614 24.1074 14.2289 23.6879 13.4232C23.2751 12.6176 23.0687 11.6954 23.0687 10.6567V10.2372C23.0687 9.18518 23.2718 8.24968 23.6779 7.43071C24.0907 6.60507 24.6534 5.95921 25.3658 5.49313C26.0849 5.02039 26.9072 4.78402 27.8327 4.78402C29.2909 4.78402 30.3995 5.21681 31.1586 6.08239C31.9243 6.94798 32.3071 8.13649 32.3071 9.64793V11.0861H25.6754L25.6554 11.1361C25.6954 11.9883 25.9418 12.6908 26.3945 13.2434C26.8473 13.7894 27.4932 14.0624 28.3321 14.0624C28.918 14.0624 29.4507 13.9825 29.9301 13.8227C30.4095 13.6629 30.8556 13.4365 31.2684 13.1436L32.0475 14.7216C31.6213 15.0878 31.0787 15.3941 30.4195 15.6404C29.767 15.8801 28.9979 16 28.1124 16ZM25.7154 9.31834H29.9001V9.05867C29.9001 8.35289 29.7337 7.78027 29.4008 7.34082C29.0745 6.90137 28.5618 6.68164 27.8627 6.68164C27.2501 6.68164 26.7541 6.928 26.3745 7.42072C26.0017 7.91343 25.772 8.52933 25.6854 9.26841L25.7154 9.31834Z" fill="#262626"/>
<path d="M38.9588 16C37.9334 16 37.0445 15.7736 36.2921 15.3208C35.5398 14.8614 34.9538 14.2289 34.5343 13.4232C34.1215 12.6176 33.9151 11.6954 33.9151 10.6567V10.2372C33.9151 9.18518 34.1182 8.24968 34.5244 7.43071C34.9372 6.60507 35.4998 5.95921 36.2122 5.49313C36.9313 5.02039 37.7537 4.78402 38.6792 4.78402C40.1373 4.78402 41.2459 5.21681 42.005 6.08239C42.7707 6.94798 43.1536 8.13649 43.1536 9.64793V11.0861H36.5219L36.5019 11.1361C36.5418 11.9883 36.7882 12.6908 37.241 13.2434C37.6937 13.7894 38.3396 14.0624 39.1785 14.0624C39.7645 14.0624 40.2971 13.9825 40.7765 13.8227C41.2559 13.6629 41.702 13.4365 42.1149 13.1436L42.8939 14.7216C42.4678 15.0878 41.9251 15.3941 41.2659 15.6404C40.6134 15.8801 39.8444 16 38.9588 16ZM36.5618 9.31834H40.7466V9.05867C40.7466 8.35289 40.5801 7.78027 40.2472 7.34082C39.9209 6.90137 39.4082 6.68164 38.7091 6.68164C38.0966 6.68164 37.6005 6.928 37.221 7.42072C36.8481 7.91343 36.6184 8.52933 36.5318 9.26841L36.5618 9.31834Z" fill="#262626"/>
<path d="M44.5119 15.7902V14.2522L46.01 13.9525V6.83146L44.432 6.53183V4.98377H48.3271L48.4569 6.55181C48.8165 5.9925 49.2626 5.55971 49.7953 5.25343C50.3346 4.94049 50.9438 4.78402 51.623 4.78402C52.7349 4.78402 53.6005 5.12692 54.2197 5.81273C54.8389 6.49854 55.1486 7.56387 55.1486 9.00873V13.9525L56.6467 14.2522V15.7902H51.2235V14.2522L52.6317 13.9525V9.02871C52.6317 8.20973 52.4686 7.63046 52.1423 7.29088C51.8161 6.94465 51.33 6.77153 50.6841 6.77153C50.2047 6.77153 49.7819 6.88139 49.4157 7.10112C49.0495 7.31418 48.7532 7.61381 48.5268 7.99999V13.9525L49.8951 14.2522V15.7902H44.5119Z" fill="#262626"/>
<path d="M57.7653 15.7902V14.2522L59.3533 13.9525V3.09613L57.7653 2.7965V1.24844H63.578V2.7965L61.8702 3.09613V13.8627H66.4145L66.5843 11.6554H68.5118V15.7902H57.7653Z" fill="#262626"/>
<path d="M74.9738 16C73.9484 16 73.0595 15.7736 72.3071 15.3208C71.5547 14.8614 70.9688 14.2289 70.5493 13.4232C70.1365 12.6176 69.9301 11.6954 69.9301 10.6567V10.2372C69.9301 9.18518 70.1331 8.24968 70.5393 7.43071C70.9521 6.60507 71.5148 5.95921 72.2272 5.49313C72.9463 5.02039 73.7686 4.78402 74.6941 4.78402C76.1523 4.78402 77.2609 5.21681 78.02 6.08239C78.7857 6.94798 79.1685 8.13649 79.1685 9.64793V11.0861H72.5368L72.5168 11.1361C72.5568 11.9883 72.8031 12.6908 73.2559 13.2434C73.7087 13.7894 74.3545 14.0624 75.1935 14.0624C75.7794 14.0624 76.3121 13.9825 76.7915 13.8227C77.2709 13.6629 77.717 13.4365 78.1298 13.1436L78.9088 14.7216C78.4827 15.0878 77.94 15.3941 77.2809 15.6404C76.6284 15.8801 75.8593 16 74.9738 16ZM72.5768 9.31834H76.7615V9.05867C76.7615 8.35289 76.5951 7.78027 76.2621 7.34082C75.9359 6.90137 75.4232 6.68164 74.7241 6.68164C74.1115 6.68164 73.6155 6.928 73.2359 7.42072C72.8631 7.91343 72.6334 8.52933 72.5468 9.26841L72.5768 9.31834Z" fill="#262626"/>
<path d="M84.2222 16C83.1236 16 82.268 15.717 81.6554 15.151C81.0428 14.5851 80.7365 13.8061 80.7365 12.814C80.7365 11.7952 81.1494 10.9696 81.975 10.3371C82.8073 9.70453 83.9991 9.38826 85.5505 9.38826H87.1985V8.47939C87.1985 7.90678 87.0254 7.45068 86.6791 7.11111C86.3395 6.77153 85.8435 6.60174 85.191 6.60174C84.8181 6.60174 84.4885 6.64835 84.2022 6.74157C83.9159 6.82813 83.6596 6.95463 83.4332 7.12109L83.2135 8.57927H81.3558L81.3358 5.9126C81.8618 5.55971 82.4511 5.28339 83.1036 5.08364C83.7628 4.88389 84.4919 4.78402 85.2909 4.78402C86.6625 4.78402 87.7411 5.10695 88.5268 5.7528C89.3192 6.39866 89.7153 7.31751 89.7153 8.50936V13.2734C89.7153 13.4199 89.7153 13.563 89.7153 13.7029C89.722 13.836 89.732 13.9725 89.7453 14.1123L90.8439 14.2522V15.7902H87.558C87.4914 15.5572 87.4282 15.3308 87.3683 15.1111C87.315 14.8914 87.275 14.6716 87.2484 14.4519C86.8889 14.9047 86.4527 15.2776 85.94 15.5705C85.4274 15.8568 84.8547 16 84.2222 16ZM84.7915 14.0524C85.3042 14.0524 85.7769 13.9359 86.2097 13.7029C86.6492 13.4632 86.9787 13.1635 87.1985 12.804V10.9962H85.5206C84.7682 10.9962 84.1989 11.1727 83.8127 11.5256C83.4332 11.8718 83.2434 12.278 83.2434 12.7441C83.2434 13.6163 83.7594 14.0524 84.7915 14.0524Z" fill="#262626"/>
<path d="M92.1722 15.7902V14.2522L93.6804 13.9525V6.78152H92.0324V4.98377H93.6804V3.71535C93.6804 2.53017 94.0066 1.61465 94.6591 0.968788C95.3183 0.322929 96.2372 0 97.4157 0C97.6887 0 97.9817 0.0233042 98.2946 0.0699126C98.6075 0.109863 98.8938 0.163129 99.1535 0.229713L98.9038 2.11735C98.764 2.08406 98.5909 2.05743 98.3845 2.03745C98.1781 2.01082 97.975 1.9975 97.7752 1.9975C96.7232 1.9975 96.1972 2.57012 96.1972 3.71535V4.98377H98.6042V6.78152H96.1972V13.9525L98.0749 14.2522V15.7902H92.1722Z" fill="#262626"/>
</svg>
