<svg width="27" height="26" viewBox="0 0 27 26" fill="none" xmlns="http://www.w3.org/2000/svg">
<path d="M13.6667 4.97787C12.4707 3.88804 10.9453 3.29004 9.33765 3.29004C7.62815 3.29004 6.00965 3.96496 4.77357 5.19454C2.22449 7.75446 2.22557 11.7585 4.77574 14.3075L12.7187 22.2505C12.9029 22.5745 13.2582 22.7835 13.6667 22.7835C14.0155 22.7835 14.3264 22.607 14.5247 22.3405L22.5576 14.3075C25.1077 11.7574 25.1077 7.75446 22.5554 5.19021C21.3237 3.96496 19.7052 3.29004 17.9957 3.29004C16.3891 3.29004 14.8627 3.88804 13.6667 4.97787ZM21.0236 6.72204C22.7168 8.42396 22.7179 11.0825 21.0257 12.7757L13.6667 20.1348L6.30757 12.7757C4.6154 11.0825 4.61649 8.42396 6.3054 6.72637C7.12874 5.90737 8.20557 5.45671 9.33765 5.45671C10.4697 5.45671 11.5422 5.90737 12.3591 6.72421L12.9007 7.26587C13.3243 7.68946 14.009 7.68946 14.4326 7.26587L14.9742 6.72421C16.6122 5.08946 19.3877 5.09379 21.0236 6.72204Z" fill="#B9BDCA"/>
</svg>
