<svg width="26" height="26" viewBox="0 0 26 26" fill="none" xmlns="http://www.w3.org/2000/svg">
<path d="M5.41666 23.8333H20.5833C21.7782 23.8333 22.75 22.8615 22.75 21.6666V9.74996C22.75 9.15088 22.2657 8.66663 21.6667 8.66663H18.4167V7.58329C18.4167 4.59654 15.9867 2.16663 13 2.16663C10.0132 2.16663 7.58333 4.59654 7.58333 7.58329V8.66663H4.33333C3.73425 8.66663 3.25 9.15088 3.25 9.74996V21.6666C3.25 22.8615 4.22175 23.8333 5.41666 23.8333ZM9.75 7.58329C9.75 5.79146 11.2082 4.33329 13 4.33329C14.7918 4.33329 16.25 5.79146 16.25 7.58329V8.66663H9.75V7.58329ZM5.41666 10.8333H7.58333V13H9.75V10.8333H16.25V13H18.4167V10.8333H20.5833L20.5855 21.6666H5.41666V10.8333Z" fill="#B9BDCA"/>
</svg>
