<svg viewBox="0 0 27 26" xmlns="http://www.w3.org/2000/svg">
<path d="M5.66996 23.8333H10.0033H16.5033H20.8366C22.0315 23.8333 23.0033 22.8616 23.0033 21.6667V11.9167C23.0033 11.6296 22.8895 11.3533 22.6859 11.1507L14.0192 2.48407C13.5956 2.06049 12.911 2.06049 12.4874 2.48407L3.82071 11.1507C3.61705 11.3533 3.5033 11.6296 3.5033 11.9167V21.6667C3.5033 22.8616 4.47505 23.8333 5.66996 23.8333ZM11.0866 21.6667V16.25H15.42V21.6667H11.0866ZM5.66996 12.3652L13.2533 4.78182L20.8366 12.3652L20.8377 21.6667H17.5866V16.25C17.5866 15.0551 16.6149 14.0833 15.42 14.0833H11.0866C9.89171 14.0833 8.91996 15.0551 8.91996 16.25V21.6667H5.66996V12.3652Z" />
</svg>
