<svg viewBox="0 0 16 16" xmlns="http://www.w3.org/2000/svg">
<path d="M6.66666 12C7.89733 12 9.02866 11.5767 9.93133 10.8747L12.862 13.8053L13.8047 12.8627L10.874 9.932C11.5767 9.02866 12 7.89733 12 6.66666C12 3.726 9.60733 1.33333 6.66666 1.33333C3.726 1.33333 1.33333 3.726 1.33333 6.66666C1.33333 9.60733 3.726 12 6.66666 12ZM6.66666 2.66666C8.87266 2.66666 10.6667 4.46066 10.6667 6.66666C10.6667 8.87266 8.87266 10.6667 6.66666 10.6667C4.46066 10.6667 2.66666 8.87266 2.66666 6.66666C2.66666 4.46066 4.46066 2.66666 6.66666 2.66666Z" />
</svg>
