<svg viewBox="0 0 24 24" xmlns="http://www.w3.org/2000/svg">
<path d="M5 12H4V20C4 21.104 4.896 22 6 22H11V12H6H5ZM18 12H13V22H18C19.104 22 20 21.104 20 20V12H19H18ZM18.791 7C18.922 6.589 19 6.096 19 5.5C19 3.57 17.43 2 15.5 2C13.878 2 12.795 3.482 12.096 5.085C11.407 3.57 10.269 2 8.5 2C6.57 2 5 3.57 5 5.5C5 6.096 5.079 6.589 5.209 7H2V11H11V9H12H13V9.091V11H22V7H18.791ZM7 5.5C7 4.673 7.673 4 8.5 4C9.388 4 10.214 5.525 10.698 7H8C7.626 7 7 7 7 5.5ZM15.5 4C16.327 4 17 4.673 17 5.5C17 7 16.374 7 16 7H13.523C14.033 5.424 14.774 4 15.5 4Z" />
</svg>
