<svg width="8" height="8" viewBox="0 0 8 8" fill="none" xmlns="http://www.w3.org/2000/svg">
<path d="M1.542 2.95933C1.676 2.64133 1.868 2.35633 2.112 2.11233C2.35733 1.86733 2.64233 1.67533 2.95933 1.54233C3.60433 1.27033 4.353 1.26666 5.00267 1.52866C5.01833 1.977 5.38133 2.33333 5.83333 2.33333C6.29533 2.33333 6.66667 1.962 6.66667 1.5C6.66667 1.038 6.29533 0.666664 5.83333 0.666664C5.60367 0.666664 5.396 0.758664 5.24567 0.908331C4.43533 0.583997 3.50467 0.588997 2.70067 0.927997C2.304 1.09466 1.94733 1.33466 1.64067 1.641C1.33533 1.946 1.09567 2.30266 0.928001 2.70033C0.754668 3.11133 0.666668 3.54866 0.666668 4H1.33333C1.33333 3.638 1.40367 3.288 1.542 2.95933ZM6.45767 5.04066C6.324 5.358 6.132 5.64333 5.88767 5.88766C5.64333 6.132 5.358 6.324 5.04033 6.45766C4.395 6.72966 3.64633 6.73333 2.997 6.47133C2.98167 6.023 2.61867 5.66666 2.16667 5.66666C1.70467 5.66666 1.33333 6.038 1.33333 6.5C1.33333 6.962 1.70467 7.33333 2.16667 7.33333C2.39633 7.33333 2.604 7.24133 2.75433 7.09166C3.15 7.25066 3.56833 7.33333 4 7.33333C4.45133 7.33333 4.88833 7.24533 5.299 7.07233C5.69633 6.90466 6.05333 6.66466 6.359 6.359C6.66467 6.05333 6.90467 5.69666 7.07233 5.29933C7.24533 4.88833 7.33333 4.45133 7.33333 4H6.66667C6.66667 4.36166 6.59633 4.71166 6.45767 5.04066Z" fill="#0E9F6E"/>
<path d="M4.00002 2.48734C3.16602 2.48734 2.48735 3.166 2.48735 4C2.48735 4.834 3.16602 5.51267 4.00002 5.51267C4.83402 5.51267 5.51268 4.834 5.51268 4C5.51268 3.166 4.83402 2.48734 4.00002 2.48734Z" fill="#0E9F6E"/>
</svg>
